name C:\Users\u0101727\Documents\MyRepositories\upper-imu-dc\Results\main_tracking\Case_25\kinematics.mot
datacolumns 10
datarows 47
range 0.90000000 1.36000000
endheader 
time	clav_prot	clav_elev	scapula_abduction	scapula_elevation	scapula_upward_rot	scapula_winging	plane_elv	shoulder_elv	axial_rot	
          0.90000000	        -23.51984997	         -2.51322988	        -11.71427344	         -3.94389195	         17.78540560	          3.64039959	        -20.03114824	         13.13893267	         42.43028307	
          0.91000000	        -23.36189212	         -2.73703648	        -11.38794223	         -4.10035653	         17.77235758	          3.71118428	        -19.72369356	         13.29341775	         41.59811886	
          0.92000000	        -23.19143278	         -2.93022961	        -11.06805638	         -4.22517718	         17.72770630	          3.77984807	        -19.33766518	         13.47284780	         40.94383923	
          0.93000000	        -23.44065108	         -3.04910033	        -11.52225853	         -4.30883335	         17.64004373	          3.84295745	        -18.92129429	         13.67289912	         40.60720045	
          0.94000000	        -23.48229430	         -3.14034473	        -11.59953496	         -4.36877004	         17.59237380	          3.88443901	        -18.50416162	         13.84571692	         40.25523146	
          0.95000000	        -23.43025347	         -3.19688048	        -11.50302111	         -4.40500249	         17.57854674	          3.90547434	        -18.07356754	         13.99988500	         39.78399877	
          0.96000000	        -23.45336478	         -3.19701190	        -11.54766468	         -4.40467086	         17.57101471	          3.90767417	        -17.60915896	         14.14489031	         39.27401813	
          0.97000000	        -23.40359455	         -3.14442244	        -11.45451290	         -4.37010581	         17.60486653	          3.88173033	        -17.20043130	         14.24362044	         38.79203375	
          0.98000000	        -23.27754587	         -3.02797044	        -11.22539753	         -4.29083774	         17.67246307	          3.82595103	        -16.91238106	         14.28090964	         38.52203381	
          0.99000000	        -23.16384895	         -2.82932489	        -11.00932898	         -4.16211926	         17.78876918	          3.73248627	        -16.81851573	         14.22204150	         38.68838499	
          1.00000000	        -23.05681363	         -2.55577540	        -10.81577877	         -3.98110799	         17.92066126	          3.61334046	        -16.93486072	         14.09122170	         39.44407400	
          1.01000000	        -22.35235617	         -2.25474308	         -9.59022439	         -3.74447580	         18.05470708	          3.46858864	        -17.15638289	         13.92043951	         40.45686282	
          1.02000000	        -21.93875045	         -1.88108644	         -8.90142002	         -3.46617747	         18.16881067	          3.31432603	        -17.29871949	         13.75736629	         41.31965532	
          1.03000000	        -21.60304311	         -1.49113635	         -8.36273166	         -3.17692354	         18.26758292	          3.16466305	        -17.24994936	         13.62051691	         41.83016243	
          1.04000000	        -21.36147292	         -1.11292632	         -7.98510411	         -2.90267361	         18.36766886	          3.02605514	        -16.95688951	         13.50835386	         41.94475370	
          1.05000000	        -21.18414808	         -0.75878726	         -7.70587024	         -2.65364540	         18.48048853	          2.89746086	        -16.42466507	         13.42228814	         41.63505834	
          1.06000000	        -21.22445544	         -0.43127599	         -7.76389844	         -2.45181892	         18.65315641	          2.77741971	        -15.73752827	         13.31955042	         41.02594287	
          1.07000000	        -21.49691920	         -0.13391459	         -8.17886182	         -2.30244659	         18.89317469	          2.66267508	        -14.93964219	         13.18918954	         40.17843293	
          1.08000000	        -21.76835129	          0.13673328	         -8.56253937	         -2.18155539	         19.16714389	          2.54328533	        -14.07321402	         13.05108604	         39.14299063	
          1.09000000	        -23.58258028	          0.53924252	        -11.67843818	         -2.05840774	         19.45795169	          2.41141097	        -13.24071223	         12.89225301	         38.12995260	
          1.10000000	        -23.41974106	          0.81906629	        -11.29525462	         -1.90961026	         19.75059704	          2.27351391	        -12.57815854	         12.68162976	         37.61128205	
          1.11000000	        -22.13011600	          0.98649078	         -8.91545017	         -1.77121698	         20.01613436	          2.14936258	        -11.98374417	         12.41155082	         37.88125788	
          1.12000000	        -22.79060439	          1.31492958	        -10.01972891	         -1.62468273	         20.26619876	          2.03099888	        -11.57996978	         12.10598965	         38.72847707	
          1.13000000	        -22.80026052	          1.64649761	        -10.00474996	         -1.42963840	         20.48378698	          1.90855913	        -11.34624571	         11.82363516	         39.58595839	
          1.14000000	        -22.01305417	          1.96256634	         -8.59142022	         -1.19573105	         20.68670432	          1.77966936	        -11.21083010	         11.57370956	         40.21023072	
          1.15000000	        -21.64922467	          2.32899015	         -7.93693655	         -0.95041358	         20.89222174	          1.64798244	        -11.03439304	         11.34965617	         40.51419271	
          1.16000000	        -21.42658140	          2.69333729	         -7.50804201	         -0.72328857	         21.13215961	          1.51422777	        -10.76956541	         11.12577108	         40.54526569	
          1.17000000	        -21.32295540	          3.04670768	         -7.26210176	         -0.51992441	         21.40852057	          1.37999234	        -10.39543405	         10.90205957	         40.33669574	
          1.18000000	        -21.30741795	          3.38933110	         -7.14952578	         -0.33651841	         21.71418192	          1.24592094	         -9.91902595	         10.68553702	         39.92857180	
          1.19000000	        -21.35179188	          3.72412239	         -7.12709983	         -0.16719227	         22.04067301	          1.11215642	         -9.35876206	         10.48249448	         39.36848551	
          1.20000000	        -21.42487314	          4.05614516	         -7.14693514	         -0.00433532	         22.37943033	          0.97853533	         -8.73809076	         10.29749879	         38.69997486	
          1.21000000	        -21.41541639	          4.38918915	         -7.02410550	          0.16535876	         22.71271123	          0.84507822	         -8.07157997	         10.14294481	         37.94184477	
          1.22000000	        -21.33868524	          4.73483319	         -6.80438107	          0.35444093	         23.01982061	          0.71777788	         -7.36562106	         10.03522614	         37.09389700	
          1.23000000	        -21.22211043	          5.10056741	         -6.52832639	          0.56303321	         23.31697334	          0.59270755	         -6.65354126	          9.94895781	         36.23792002	
          1.24000000	        -21.09318635	          5.47847933	         -6.23148278	          0.78014874	         23.61929599	          0.46764071	         -5.92999679	          9.86099295	         35.42663460	
          1.25000000	        -20.97455907	          5.86510810	         -5.94831119	          1.00037462	         23.93366105	          0.34211454	         -5.19032288	          9.75795145	         34.68793639	
          1.26000000	        -20.87488423	          6.25831764	         -5.69183850	          1.22110967	         24.26259599	          0.21620159	         -4.43181256	          9.63216139	         34.03158476	
          1.27000000	        -20.79924777	          6.65562464	         -5.46978897	          1.44011557	         24.60688530	          0.09025328	         -3.65427765	          9.47903173	         33.45734311	
          1.28000000	        -20.75154669	          7.05379487	         -5.28813732	          1.65490369	         24.96631723	         -0.03525762	         -2.86121923	          9.29630520	         32.95832014	
          1.29000000	        -20.73457468	          7.44892893	         -5.15125762	          1.86278306	         25.33969855	         -0.15980252	         -2.06032198	          9.08392453	         32.52369318	
          1.30000000	        -20.74962351	          7.83676917	         -5.06138331	          2.06112505	         25.72474791	         -0.28282853	         -1.26337295	          8.84391772	         32.14051936	
          1.31000000	        -20.79611359	          8.21313591	         -5.01808785	          2.24768983	         26.11812578	         -0.40378420	         -0.48548807	          8.58003712	         31.79530223	
          1.32000000	        -20.87123275	          8.57445070	         -5.01772980	          2.42098502	         26.51560774	         -0.52213047	          0.25653014	          8.29718667	         31.47576130	
          1.33000000	        -20.96958593	          8.91818400	         -5.05281848	          2.58054548	         26.91237090	         -0.63732714	          0.94657558	          8.00076903	         31.17287092	
          1.34000000	        -21.08299616	          9.24297383	         -5.11140529	          2.72693433	         27.30342885	         -0.74882146	          1.57168408	          7.69603013	         30.88255744	
          1.35000000	        -21.20060211	          9.54828404	         -5.17674068	          2.86137852	         27.68414333	         -0.85605492	          2.12395099	          7.38752469	         30.60653545	
          1.36000000	        -21.30959885	          9.83376825	         -5.22801435	          2.98517715	         28.05064684	         -0.95848009	          2.60164425	          7.07883719	         30.35211079	
